<svg width="40" height="41" viewBox="0 0 40 41" fill="none" xmlns="http://www.w3.org/2000/svg">
<path fill-rule="evenodd" clip-rule="evenodd" d="M15.6667 0.916687C24.3051 0.916687 31.3333 7.94489 31.3333 16.5834C31.3333 20.1977 30.091 23.5207 28.027 26.1744L39.1633 37.3108L36.3941 40.08L25.2578 28.9436C22.604 31.0077 19.281 32.25 15.6667 32.25C7.0282 32.25 0 25.2218 0 16.5834C0 7.94489 7.0282 0.916687 15.6667 0.916687ZM15.6667 4.83335C9.18735 4.83335 3.91667 10.104 3.91667 16.5834C3.91667 23.0627 9.18735 28.3334 15.6667 28.3334C22.146 28.3334 27.4167 23.0627 27.4167 16.5834C27.4167 10.104 22.146 4.83335 15.6667 4.83335ZM15.6667 19.5209C17.289 19.5209 18.6042 20.836 18.6042 22.4584C18.6042 24.0807 17.289 25.3959 15.6667 25.3959C14.0443 25.3959 12.7292 24.0807 12.7292 22.4584C12.7292 20.836 14.0443 19.5209 15.6667 19.5209ZM17.625 6.79169V16.5834H13.7083V6.79169H17.625Z" fill="#002E61"/>
</svg>
